<svg width="143" height="127" viewBox="0 0 143 127" fill="none" xmlns="http://www.w3.org/2000/svg">
<path fill-rule="evenodd" clip-rule="evenodd" d="M110.215 21.1563C110.728 21.7002 111.128 22.3397 111.393 23.0384C111.659 23.737 111.784 24.4811 111.762 25.2282C111.739 25.9752 111.57 26.7105 111.264 27.3921C110.957 28.0737 110.519 28.6883 109.975 29.2007L83.9758 53.7015C82.8893 54.7252 81.4441 55.2808 79.9517 55.2487C78.4593 55.2166 77.0394 54.5994 75.9979 53.53L65.0316 42.2643C63.979 41.1829 63.3991 39.7277 63.4195 38.2187C63.4398 36.7098 64.0588 35.2707 65.1401 34.2181C66.2215 33.1656 67.6768 32.5856 69.1857 32.606C70.6947 32.6264 72.1337 33.2453 73.1863 34.3267L80.2468 41.5798L102.174 20.9182C103.272 19.8833 104.737 19.327 106.245 19.3716C107.753 19.4163 109.182 20.0582 110.217 21.1563" fill="#B4AEFF"/>
<path d="M5.39492 92L5.39492 56.7345H14.5639V60.6137C15.8178 58.968 17.3656 57.7141 19.2072 56.8521C21.0489 55.99 23.0277 55.559 25.1436 55.559C27.6514 55.559 29.9828 56.1663 32.1379 57.381C34.3322 58.5566 36.0955 60.3002 37.4277 62.6121C38.7992 64.8848 39.4849 67.6472 39.4849 70.8995V92H29.2579L29.2579 72.2513C29.2579 70.2921 28.6701 68.5485 27.4946 67.0203C26.3191 65.4921 24.6342 64.728 22.4399 64.728C20.6766 64.728 19.0897 65.3354 17.6791 66.5501C16.3076 67.7256 15.6219 69.5868 15.6219 72.1338V92H5.39492ZM63.2275 93.1755C59.27 93.1755 55.7826 92.3527 52.7654 90.7069C49.7483 89.0612 47.3972 86.8081 45.7123 83.9477C44.0274 81.0481 43.185 77.7371 43.185 74.0146C43.185 70.4489 44.0078 67.2946 45.6536 64.5517C47.2993 61.7696 49.5132 59.5753 52.2952 57.9688C55.1165 56.3623 58.2316 55.559 61.6406 55.559C65.1279 55.559 68.2431 56.3623 70.9859 57.9688C73.7288 59.5362 75.8839 61.6913 77.4513 64.4341C79.0578 67.177 79.8611 70.2921 79.8611 73.7795V77.3648H58.3491C57.3695 77.3648 56.4291 77.306 55.5279 77.1885C54.6267 77.0709 53.7254 76.9338 52.8242 76.7771C53.2944 79.1281 54.4503 81.0481 56.292 82.5371C58.1728 83.9869 60.563 84.7118 63.4626 84.7118C65.6961 84.7118 67.6945 84.2612 69.4578 83.36C71.2602 82.4587 72.7296 81.342 73.866 80.0097L76.0994 89.1788C74.3362 90.511 72.3378 91.5102 70.1043 92.1763C67.91 92.8425 65.6177 93.1755 63.2275 93.1755ZM52.5891 70.6056C54.5483 70.1746 56.4683 69.9591 58.3491 69.9591H64.5794C65.6765 69.9591 66.7149 69.9983 67.6945 70.0766C68.6741 70.155 69.5949 70.2921 70.457 70.4881C69.8692 68.3721 68.7916 66.7068 67.2243 65.4921C65.6961 64.2774 63.7957 63.6701 61.523 63.6701C59.3679 63.6701 57.4871 64.297 55.8806 65.5509C54.3132 66.7656 53.216 68.4505 52.5891 70.6056ZM95.5018 93.1755C93.1116 93.1755 90.6822 92.7837 88.2136 92C85.7842 91.2163 83.8838 90.1584 82.5124 88.8261L85.0397 79.1869C86.1761 80.7542 87.7434 82.1257 89.7418 83.3012C91.7794 84.4767 93.8757 85.0645 96.0308 85.0645C97.4806 85.0645 98.519 84.7902 99.1459 84.2416C99.8121 83.693 100.145 83.0269 100.145 82.2432C100.145 81.342 99.8121 80.6955 99.1459 80.3036C98.4798 79.8726 97.7941 79.5199 97.0888 79.2456L92.1516 77.3648C91.0545 76.9338 89.8006 76.346 88.39 75.6015C86.9793 74.8571 85.7451 73.7991 84.6871 72.4277C83.6683 71.0562 83.1589 69.2538 83.1589 67.0203C83.1589 64.9827 83.6683 63.1019 84.6871 61.3778C85.7059 59.6537 87.1753 58.2627 89.0953 57.2047C91.0545 56.1076 93.4055 55.559 96.1484 55.559C98.6953 55.559 101.066 55.99 103.26 56.8521C105.494 57.7141 107.12 58.6741 108.139 59.7321L105.788 69.0187C104.455 67.2946 102.868 65.9819 101.027 65.0807C99.2243 64.1403 97.5002 63.6701 95.8545 63.6701C94.6006 63.6701 93.6798 63.9248 93.092 64.4341C92.5043 64.9435 92.2104 65.5313 92.2104 66.1974C92.2104 66.7068 92.4063 67.2162 92.7982 67.7256C93.2292 68.1958 93.9345 68.6268 94.9141 69.0187L99.4986 70.7232C100.831 71.1934 102.241 71.8203 103.73 72.604C105.259 73.3877 106.552 74.4848 107.61 75.8954C108.668 77.2669 109.197 79.1673 109.197 81.5967C109.197 85.0057 107.923 87.7877 105.376 89.9428C102.868 92.098 99.577 93.1755 95.5018 93.1755ZM125.054 93.1755C122.664 93.1755 120.234 92.7837 117.766 92C115.336 91.2163 113.436 90.1584 112.065 88.8261L114.592 79.1869C115.728 80.7542 117.296 82.1257 119.294 83.3012C121.332 84.4767 123.428 85.0645 125.583 85.0645C127.033 85.0645 128.071 84.7902 128.698 84.2416C129.364 83.693 129.697 83.0269 129.697 82.2432C129.697 81.342 129.364 80.6955 128.698 80.3036C128.032 79.8726 127.346 79.5199 126.641 79.2456L121.704 77.3648C120.607 76.9338 119.353 76.346 117.942 75.6015C116.532 74.8571 115.297 73.7991 114.239 72.4277C113.221 71.0562 112.711 69.2538 112.711 67.0203C112.711 64.9827 113.221 63.1019 114.239 61.3778C115.258 59.6537 116.728 58.2627 118.648 57.2047C120.607 56.1076 122.958 55.559 125.701 55.559C128.248 55.559 130.618 55.99 132.813 56.8521C135.046 57.7141 136.672 58.6741 137.691 59.7321L135.34 69.0187C134.008 67.2946 132.421 65.9819 130.579 65.0807C128.777 64.1403 127.052 63.6701 125.407 63.6701C124.153 63.6701 123.232 63.9248 122.644 64.4341C122.057 64.9435 121.763 65.5313 121.763 66.1974C121.763 66.7068 121.959 67.2162 122.35 67.7256C122.781 68.1958 123.487 68.6268 124.466 69.0187L129.051 70.7232C130.383 71.1934 131.794 71.8203 133.283 72.604C134.811 73.3877 136.104 74.4848 137.162 75.8954C138.22 77.2669 138.749 79.1673 138.749 81.5967C138.749 85.0057 137.475 87.7877 134.928 89.9428C132.421 92.098 129.129 93.1755 125.054 93.1755Z" fill="white"/>
</svg>
